<?xml version="1.0" encoding="utf-8"?>
<!-- Generator: Adobe Illustrator 27.5.0, SVG Export Plug-In . SVG Version: 6.00 Build 0)  -->
<svg version="1.1" id="Layer_1" xmlns="http://www.w3.org/2000/svg" xmlns:xlink="http://www.w3.org/1999/xlink" x="0px" y="0px"
	 viewBox="0 0 100 100" style="enable-background:new 0 0 100 100;" xml:space="preserve">
<style type="text/css">
	.st0{fill:#51585B;}
	.st1{fill:#FD7D15;}
	.st2{fill:#FFFFFF;}
</style>
<g>
	<g>
		<circle class="st0" cx="50.5" cy="13.9" r="4.7"/>
		<path class="st0" d="M41.7,3.4c0,1.5-1.3,2.8-2.8,2.8S36.1,5,36.1,3.4c0-1.5,1.3-2.8,2.8-2.8S41.7,1.9,41.7,3.4z"/>
		<circle class="st0" cx="61.3" cy="4.5" r="2.8"/>
	</g>
	<g>
		<circle class="st0" cx="83.3" cy="50" r="5"/>
		<path class="st0" d="M95.6,36.3c0,1.7-1.3,3-3,3c-1.7,0-3-1.3-3-3c0-1.7,1.3-3,3-3C94.3,33.2,95.6,34.6,95.6,36.3z"/>
		<path class="st0" d="M96.1,64.3c0,1.7-1.3,3-3,3c-1.7,0-3-1.3-3-3s1.3-3,3-3C94.7,61.3,96.1,62.7,96.1,64.3z"/>
	</g>
	<g>
		<circle class="st0" cx="53.2" cy="85.8" r="5.4"/>
		<path class="st0" d="M70.7,96.1c0,1.8-1.5,3.3-3.3,3.3c-1.8,0-3.3-1.5-3.3-3.3c0-1.8,1.5-3.3,3.3-3.3
			C69.2,92.9,70.7,94.3,70.7,96.1z"/>
		<path class="st0" d="M42.4,95.1c0,1.8-1.5,3.3-3.3,3.3c-1.8,0-3.3-1.5-3.3-3.3c0-1.8,1.5-3.3,3.3-3.3C41,91.8,42.4,93.3,42.4,95.1
			z"/>
	</g>
	<g>
		<circle class="st0" cx="18.1" cy="49.6" r="5"/>
		<path class="st0" d="M10,37.4c0,1.7-1.4,3-3,3c-1.7,0-3-1.4-3-3c0-1.7,1.4-3,3-3C8.6,34.4,10,35.7,10,37.4z"/>
		<path class="st0" d="M10.3,60.8c0,1.7-1.4,3-3,3c-1.7,0-3-1.4-3-3c0-1.7,1.4-3,3-3C8.9,57.8,10.3,59.2,10.3,60.8z"/>
	</g>
	<g>
		<path class="st1" d="M82.6,68.8c-1.7-0.3-3.3,0-4.7,0.6c-2.1,0.9-4.4,0.5-6.1-1.1l-1.8-1.7l5.7-3.3V34.6l-3-1.7l2.6-2.6
			c1.2-1.2,2.9-1.8,4.5-1.5c1,0.2,2,0.2,3.1-0.1c3.5-0.7,6.3-3.6,6.8-7.1c0.9-5.8-4.1-10.7-10-9.8c-3.6,0.6-6.5,3.6-7,7.3
			c-0.2,1.3-0.1,2.5,0.3,3.7c0.6,2.1,0,4.4-1.6,6l-2.2,2.1L50.9,20.2L33.1,30.4l-3.1-3c-1.4-1.4-2.1-3.4-1.7-5.4c0.2-1,0.3-2,0.1-3
			c-0.5-3.7-3.4-6.7-7.1-7.3c-5.8-0.9-10.8,4.1-9.8,9.9c0.6,3.7,3.7,6.6,7.4,7.1c1.1,0.1,2.1,0.1,3.1-0.2c1.9-0.4,3.8,0,5.2,1.3
			l2.5,2.5L26,34.6v28.7l6.4,3.7c-0.1,0.1-0.1,0.1-0.2,0.2l-2,2c-1.6,1.5-4,1.8-5.9,0.7c-1.6-0.9-3.5-1.4-5.5-1.1
			c-3.7,0.5-6.8,3.5-7.3,7.2c-0.9,6.1,4.7,11.2,10.9,9.6c3.7-1,6.2-4.5,6.2-8.4v0c0-0.7,0.3-1.4,0.8-1.9l6.5-6.3l15.1,8.7l15.8-9.1
			l3.9,3.8c1.3,1.3,2.1,3,2.1,4.9c0,0.6,0.1,1.2,0.2,1.8c0.7,3.5,3.6,6.2,7.1,6.7c5.8,0.8,10.7-4.2,9.7-10
			C89.1,72.2,86.2,69.3,82.6,68.8z M29.8,61.1V36.8l21-12.1l21,12.1v24.3l-21,12.1L29.8,61.1z"/>
		<path class="st1" d="M51.2,31.8l-14.8,8.5v17.1L51.2,66L66,57.5V40.4L51.2,31.8z M61.8,42.4l-10.3,5.5l-10.6-5.7l10.3-6L61.8,42.4
			z M51.2,61.6l-10.9-6.3v-9l11.2,6l10.7-5.7v8.6L51.2,61.6z"/>
		<polygon class="st1" points="54.8,53 54.8,56.7 51.5,58.4 47.6,56.4 47.6,52.7 51.5,54.8 		"/>
	</g>
</g>
</svg>
